# xmcd CD database file
#
# Track frame offsets:
#	150
#	21200
#	42732
#	68882
#
# Disc length: 1194 seconds
#
# Revision: 2
# Processed by: cddbd v1.5.2PL0 Copyright (c) Steve Scherf et al.
# Submitted via: CDex 1.50
#
DISCID=3404a804
DTITLE=Simply Red - Remembering the first time  (Maxi)
DYEAR=1995
DGENRE=Pop
TTITLE0=Remembering the first time (Radio disco mix)
TTITLE1=Remembering the first time (Album version)
TTITLE2=Enough (Live)
TTITLE3=A new flame (Live)
EXTD=YEAR: 1995
EXTT0=
EXTT1=
EXTT2=
EXTT3=
PLAYORDER=
